<?xml version="1.0" standalone="no"?>
<!DOCTYPE svg PUBLIC "-//W3C//DTD SVG 20010904//EN"
 "http://www.w3.org/TR/2001/REC-SVG-20010904/DTD/svg10.dtd">
<svg version="1.0" xmlns="http://www.w3.org/2000/svg"
 width="175.000000pt" height="175.000000pt" viewBox="0 0 175.000000 175.000000"
 preserveAspectRatio="xMidYMid meet">
<metadata>
Created by potrace 1.14, written by Peter Selinger 2001-2017
</metadata>
<g transform="translate(0.000000,175.000000) scale(0.100000,-0.100000)"
fill="#000000" stroke="none">
<path d="M0 875 l0 -875 875 0 875 0 0 875 0 875 -875 0 -875 0 0 -875z m1050
439 c115 -55 203 -169 231 -301 7 -35 9 -104 7 -173 -6 -138 -27 -201 -97
-294 l-47 -62 58 -77 59 -77 -73 1 -73 0 -37 49 -37 48 -52 -15 c-35 -11 -79
-14 -139 -11 -77 4 -98 9 -164 41 -151 75 -227 219 -227 432 0 240 101 397
296 461 24 8 77 13 135 11 83 -2 103 -6 160 -33z"/>
<path d="M750 1192 c-100 -51 -150 -158 -150 -317 0 -160 50 -266 149 -317 44
-23 66 -28 127 -28 45 0 74 4 74 11 0 5 -27 46 -60 90 l-61 79 69 0 70 0 42
-56 c23 -30 47 -53 53 -51 7 2 28 34 47 72 35 67 35 69 35 199 0 120 -2 136
-26 186 -51 110 -127 159 -245 160 -59 0 -81 -5 -124 -28z"/>
</g>
</svg>
